# xmcd CD database file
#
# Track frame offsets:
#	150
#	16705
#	32503
#	52064
#	68067
#	82382
#	96498
#	113002
#	129106
#	145825
#	160807
#	176776
#	194540
#	210714
#	220006
#	235615
#	251699
#	269124
#	286693
#	304023
#
# Disc length: 4275 seconds
#
# Revision: 0
# Processed by: cddbd v1.5.1PL0 Copyright (c) Steve Scherf et al.
# Submitted via: CDex 1.51
#
DISCID=2110b114
DTITLE=FM sertanejo 2002 - FM Sertanejo
DYEAR=2004
DGENRE=Country
TTITLE0=A ferro e fogo - Zeze de Camargo
TTITLE1=Vento da manhã - Kelly e Kênia
TTITLE2=Bijuteria - Bruno e Marrone
TTITLE3=Eu sem você - Rick e Renner
TTITLE4=O que é que ela tem - Gino e Geno
TTITLE5=Paixão bandida - Teodoro e Sampaio
TTITLE6=Baby - Ataíde e Alexandre
TTITLE7=O beijo da mulher amada - Gean e Geovani
TTITLE8=Se o vento soprar - Chrystian e Ralf
TTITLE9=Medo da chuva - Rio Negro e Solimões
TTITLE10=Toque de mágica - Pedro e Thiago
TTITLE11=É voce - Rick e Renner
TTITLE12=Usted - Bruno e Marrone
TTITLE13=Trem tá feito - Gino e Geno
TTITLE14=Se o remedio não voltar - Teodoro e Sampaio
TTITLE15=Taça de pranto - Gean e Geovani
TTITLE16=Tenho pena do meu coração - Pedro e Thiago
TTITLE17=Eu amo essa mulher - Rick e Renner
TTITLE18=Medo - Bruno e Marrone
TTITLE19=Pra conhecer uma mulher - Gean e Geovani
EXTD=YEAR: 2004
EXTT0=
EXTT1=
EXTT2=
EXTT3=
EXTT4=
EXTT5=
EXTT6=
EXTT7=
EXTT8=
EXTT9=
EXTT10=
EXTT11=
EXTT12=
EXTT13=
EXTT14=
EXTT15=
EXTT16=
EXTT17=
EXTT18=
EXTT19=
PLAYORDER=
